PathFileType	4	(X/Y/Z)	D:\TRACE\v60_Jaco2_6-2-23\v60_baseline_2-platform.trc
DataRate	CameraRate	NumFrames	NumMarkers	Units	OrigDataRate	OrigDataStartFrame	OrigNumFrames
100.00	100.00	      61	5	mm	100.00	1826	      7303
Frame#	Time	Left_Front			Right_Front			Left_Aft			Right_Aft			Post			
		X1	Y1	Z1	X2	Y2	Z2	X3	Y3	Z3	X4	Y4	Z4	X5	Y5	Z5	

1826	18.250	-800.68188	8.70568	-638.80280	769.32611	10.23320	-644.39081	-708.79156	7.99480	496.11508	732.98047	6.58544	505.93628	-14.13518	1308.06152	-961.47046	
1827	18.260	-800.59912	8.68251	-638.81561	769.29730	10.12363	-644.45288	-708.76520	7.99906	496.09875	732.99951	6.62228	505.93976	-14.20985	1308.13293	-961.56146	
1828	18.270	-800.57275	8.83961	-638.81232	769.30396	10.17733	-644.37335	-708.76172	8.07148	496.07574	733.02185	6.63834	505.93961	-14.16500	1308.22131	-961.63831	
1829	18.280	-800.60291	8.87604	-638.77332	769.25433	10.23944	-644.41943	-708.74695	8.05922	496.12247	733.00964	6.62331	505.92841	-14.19173	1308.22681	-961.77509	
1830	18.290	-800.67920	8.81781	-638.71509	769.39063	10.22926	-644.39221	-708.75281	8.03145	496.17258	732.99652	6.59164	505.94678	-14.22894	1308.26074	-961.84351	
1831	18.300	-800.69263	8.75469	-638.78467	769.26251	10.23382	-644.47559	-708.76184	7.98223	496.12424	732.95941	6.56600	505.94440	-14.19029	1308.18542	-961.86041	
1832	18.310	-800.59796	8.67837	-638.84479	769.34058	10.18079	-644.42261	-708.78979	8.04687	496.09976	732.92188	6.54313	505.98038	-14.11799	1308.13196	-961.82819	
1833	18.320	-800.54144	8.76412	-638.84393	769.31433	10.13875	-644.42609	-708.74414	8.04110	496.07272	732.90405	6.58185	505.98434	-14.14011	1308.12756	-961.81390	
1834	18.330	-800.57404	8.80149	-638.80731	769.29675	10.17349	-644.44751	-708.74408	8.06125	496.12674	732.92743	6.57862	505.97971	-14.17528	1308.14148	-961.82922	
1835	18.340	-800.65814	8.88566	-638.70740	769.29980	10.21671	-644.45227	-708.74585	8.09656	496.10001	732.87152	6.53261	505.99243	-14.25819	1308.20911	-961.89233	
1836	18.350	-800.68231	8.77267	-638.74341	769.31653	10.25960	-644.40808	-708.80109	8.01111	496.12680	732.85388	6.55025	505.99915	-14.16749	1308.20764	-961.88062	
1837	18.360	-800.63562	8.79793	-638.77551	769.35779	10.22890	-644.40955	-708.78290	7.98455	496.12033	732.96533	6.62349	505.94324	-14.22778	1308.21533	-961.79865	
1838	18.370	-800.51709	9.06149	-638.78424	769.32904	10.22944	-644.47394	-708.71655	7.98461	496.09113	733.27435	6.89185	506.02283	-14.22483	1308.18298	-961.77094	
1839	18.380	-800.48346	9.09238	-638.76465	769.34418	10.25748	-644.44092	-708.71118	8.01308	496.10287	733.33344	6.87742	505.98465	-14.15306	1308.24866	-961.56885	
1840	18.390	-800.58514	9.00151	-638.70575	769.37073	10.10704	-644.38959	-708.71680	7.98732	496.06171	733.33203	6.88435	505.92453	-14.35285	1308.19653	-961.53351	
1841	18.400	-800.70667	8.74694	-638.77234	769.37775	9.94274	-644.31653	-708.77545	7.93037	496.08765	733.34210	6.89926	505.84015	-14.48806	1308.14221	-961.47296	
1842	18.410	-800.67859	8.64970	-638.84119	769.33313	10.05196	-644.37689	-708.79364	7.96362	496.08511	733.34491	6.87637	505.84497	-14.14490	1307.99268	-961.43524	
1843	18.420	-800.60260	8.67837	-638.87097	769.26447	10.13153	-644.41559	-708.75903	7.95291	496.10330	733.36066	6.90026	505.86969	-14.07819	1307.99072	-961.58154	
1844	18.430	-800.52649	8.99194	-638.81750	769.38562	10.04666	-644.37103	-708.76501	7.95467	496.04861	733.07666	7.01653	506.00711	-14.24993	1308.08252	-961.86121	
1845	18.440	-800.60248	9.10201	-638.69281	769.36755	10.06491	-644.38062	-708.81763	8.14869	495.84097	733.38531	6.92906	505.85196	-14.18390	1308.16150	-962.15613	
1846	18.450	-800.65338	8.90704	-638.67218	769.35266	10.13146	-644.42572	-708.56964	7.72854	496.14264	733.29810	6.86342	505.85999	-14.13583	1308.17212	-962.24188	
1847	18.460	-800.69537	8.77643	-638.76746	769.35657	10.12069	-644.38696	-708.63159	7.61010	496.12875	733.23853	6.85735	505.91782	-14.15621	1308.19678	-962.23566	
1848	18.470	-800.60876	8.75124	-638.88904	769.29291	10.07717	-644.38269	-708.63300	7.53448	496.11395	733.26691	6.87712	506.06110	-14.08654	1308.18054	-962.18365	
1849	18.480	-800.53845	8.96996	-638.79602	769.38116	10.08454	-644.36658	-708.54785	7.62975	496.10159	733.30090	6.89797	506.06976	-14.12179	1308.18640	-961.97705	
1850	18.490	-800.49194	9.07060	-638.81476	769.36414	10.11442	-644.37646	-708.54333	7.72817	496.11679	733.29694	6.91493	506.01120	-14.23528	1308.27148	-961.63062	
1851	18.500	-800.57782	9.03781	-638.73590	769.32721	10.20113	-644.38373	-708.71301	8.04884	496.13690	733.28119	6.93072	506.04205	-14.34914	1308.14783	-961.32867	
1852	18.510	-800.67902	8.91556	-638.68439	769.24683	10.16863	-644.41473	-708.81549	8.01997	496.05179	733.15967	6.86924	506.02945	-14.39006	1308.09302	-961.18890	
1853	18.520	-800.65039	8.81227	-638.75311	769.35785	10.08951	-644.39325	-708.80145	7.92100	496.08542	733.17072	6.87105	506.06158	-14.24901	1308.02026	-961.20172	
1854	18.530	-800.61719	8.81703	-638.80328	769.31470	10.05373	-644.39136	-708.77026	7.92574	496.06580	733.17078	6.82573	506.07162	-14.27033	1308.05225	-961.37958	
1855	18.540	-800.53247	8.90376	-638.82715	769.34607	10.09968	-644.37787	-708.67902	7.90183	496.08334	733.29657	6.93917	506.11926	-14.20436	1308.11853	-961.65924	
1856	18.550	-800.60272	9.04157	-638.71826	769.29572	10.14447	-644.36829	-708.72363	7.95261	496.11359	733.28796	6.95080	506.06451	-14.13278	1308.21167	-962.04059	
1857	18.560	-800.67310	8.97840	-638.66162	769.30933	10.13423	-644.37219	-708.73022	7.96754	496.14471	733.21741	6.84104	506.00546	-14.10164	1308.27393	-962.25330	
1858	18.570	-800.64655	8.87370	-638.71906	769.29858	10.16077	-644.37299	-708.78247	7.86958	496.13693	733.23206	6.83154	506.02753	-14.07680	1308.28369	-962.25543	
1859	18.580	-800.62695	8.89160	-638.71368	769.39880	10.07670	-644.33337	-708.84131	7.90483	496.12744	733.24097	6.87375	506.03552	-14.05862	1308.22241	-962.19238	
1860	18.590	-800.53778	8.80473	-638.86920	769.33539	10.05798	-644.37561	-708.69098	7.88645	496.11783	733.30261	6.89776	506.07626	-14.12526	1308.11426	-962.05115	
1861	18.600	-800.55042	8.88612	-638.82074	769.30164	10.05843	-644.38599	-708.66272	7.86824	496.18863	733.29901	6.93488	506.00854	-14.20965	1308.12354	-961.78363	
1862	18.610	-800.60760	8.90057	-638.74536	769.35522	10.06626	-644.35706	-708.60089	7.87450	496.25073	733.23212	6.88545	505.96857	-14.25485	1308.10913	-961.58820	
1863	18.620	-800.67719	8.90690	-638.62457	769.30310	10.14310	-644.46082	-708.49634	7.62760	496.49036	732.78046	6.85321	506.13358	-14.20867	1308.08508	-961.42139	
1864	18.630	-800.66870	8.83471	-638.68427	769.36548	10.12040	-644.40643	-708.61060	7.62129	496.16470	732.64948	6.73708	506.18982	-14.22035	1308.10583	-961.42206	
1865	18.640	-800.62268	8.82937	-638.75934	769.37885	10.06830	-644.38257	-708.56372	7.59455	496.11163	732.85675	6.51991	505.93930	-14.23167	1308.17346	-961.59540	
1866	18.650	-800.56073	8.85662	-638.75763	769.34882	10.05121	-644.35992	-708.51495	7.60221	496.10471	732.45123	6.63845	506.20557	-14.30363	1308.22119	-961.64264	
1867	18.660	-800.59906	9.01328	-638.70001	769.38354	10.06207	-644.38123	-708.56006	7.68958	496.09406	732.85272	6.58414	505.98669	-14.28399	1308.25342	-961.72754	
1868	18.670	-800.63721	8.94342	-638.68707	769.35968	10.12083	-644.37115	-708.60632	7.69488	496.13544	732.82214	6.53418	505.98074	-14.19585	1308.24255	-961.73785	
1869	18.680	-800.64728	8.90169	-638.64136	769.40558	10.14012	-644.38495	-708.62225	7.64918	496.12247	732.82648	6.51180	505.99551	-14.14141	1308.19470	-961.73047	
1870	18.690	-800.59766	8.75920	-638.79224	769.35120	10.13450	-644.40820	-708.89478	8.08160	495.82162	732.44586	6.62572	506.21866	-14.16186	1308.16577	-961.68842	
1871	18.700	-800.53503	8.80833	-638.83032	769.39178	10.07149	-644.37500	-708.70111	7.95603	496.09238	732.92542	6.59674	505.98401	-14.19333	1308.13367	-961.73517	
1872	18.710	-800.54077	8.88471	-638.80823	769.36761	10.03166	-644.37817	-708.74841	7.98435	496.06522	732.88055	6.58891	505.96634	-14.22021	1308.09875	-961.78772	
1873	18.720	-800.59491	8.88694	-638.72577	769.32764	10.10804	-644.37054	-708.74286	7.98812	496.05429	732.77924	6.49489	505.96442	-14.20752	1308.12146	-961.93024	
1874	18.730	-800.65961	8.91146	-638.67029	769.34332	10.11806	-644.39972	-708.77490	7.96024	496.13678	732.73822	6.45376	505.97137	-14.19143	1308.19873	-961.95239	
1875	18.740	-800.63232	8.88899	-638.69818	769.37128	10.13931	-644.39313	-708.83466	7.96026	496.10184	732.64819	6.30808	505.81119	-14.13940	1308.26062	-962.03491	
1876	18.750	-800.58405	8.89754	-638.75104	769.32117	10.14973	-644.42499	-708.70355	7.86712	496.12814	732.19202	6.34788	506.12439	-14.17075	1308.27319	-961.93762	
1877	18.760	-800.54865	8.97236	-638.77399	769.34686	10.24292	-644.43304	-708.68939	7.91529	496.10547	732.61072	6.33148	505.94177	-14.24148	1308.21533	-961.79913	
1878	18.770	-800.59070	9.05757	-638.73749	769.36029	10.27603	-644.40601	-708.72723	8.01620	496.10361	732.72546	6.39313	505.88156	-14.20846	1308.13074	-961.58246	
1879	18.780	-800.65393	8.98694	-638.65930	769.36841	10.17082	-644.39355	-708.74976	8.02028	496.09781	733.00818	6.55211	505.80606	-14.31091	1308.14417	-961.45325	
1880	18.790	-800.73596	8.77046	-638.64258	769.31128	10.10399	-644.34308	-708.74054	7.97073	496.15594	733.24213	6.77664	505.91183	-14.31888	1308.16663	-961.41003	
1881	18.800	-800.65491	8.60368	-638.87274	769.36334	10.15371	-644.40161	-708.77118	8.07633	496.11578	733.29382	6.80937	505.87354	-14.14354	1308.11890	-961.45380	
1882	18.810	-800.59985	8.67507	-638.87671	769.33118	10.12674	-644.41406	-708.72003	8.00886	496.12396	733.28644	6.84819	505.90402	-14.28231	1308.15063	-961.47418	
1883	18.820	-800.53754	8.79161	-638.79065	769.30780	10.15577	-644.39520	-708.71686	7.96485	496.09814	733.31085	6.81688	505.87277	-14.23405	1308.15625	-961.70349	
1884	18.830	-800.57153	8.90346	-638.68170	769.33490	10.15903	-644.45026	-708.71234	8.00019	496.13556	733.28033	6.80375	505.86899	-14.12542	1308.20593	-961.91248	
1885	18.840	-800.69086	8.81325	-638.68805	769.30939	10.23563	-644.44543	-708.72998	8.02910	496.13861	733.24512	6.77694	505.85339	-14.06430	1308.18408	-962.00323	
1886	18.850	-800.69000	8.73530	-638.74878	769.42401	10.19180	-644.35773	-708.75067	8.03738	496.07745	733.04150	6.53680	505.74387	-14.09509	1308.22754	-962.07965	
